<?xml version="1.0" encoding="UTF-8" standalone="no"?>
<!DOCTYPE svg PUBLIC "-//W3C//DTD SVG 1.1//EN"
 "http://www.w3.org/Graphics/SVG/1.1/DTD/svg11.dtd">
<!-- Generated by graphviz version 2.38.0 (20140413.2041)
 -->
<!-- Title: G Pages: 1 -->
<svg width="602pt" height="243pt"
 viewBox="0.00 0.00 601.50 243.00" xmlns="http://www.w3.org/2000/svg" xmlns:xlink="http://www.w3.org/1999/xlink">
<g id="graph0" class="graph" transform="scale(1 1) rotate(0) translate(4 239)">
<title>G</title>
<polygon fill="white" stroke="none" points="-4,4 -4,-239 597.5,-239 597.5,4 -4,4"/>
<g id="clust1" class="cluster"><title>cluster_localhost</title>
<polygon fill="none" stroke="black" points="8,-8 8,-227 444,-227 444,-8 8,-8"/>
<text text-anchor="middle" x="226" y="-211.8" font-family="Times,serif" font-size="14.00">127.0.0.1:8090/events2017</text>
</g>
<!-- getvenues -->
<g id="node1" class="node"><title>getvenues</title>
<polygon fill="none" stroke="black" points="436,-124 352,-124 352,-88 436,-88 436,-124"/>
<text text-anchor="middle" x="394" y="-102.3" font-family="Times,serif" font-size="14.00">GET venues</text>
</g>
<!-- getevents -->
<g id="node2" class="node"><title>getevents</title>
<polygon fill="none" stroke="black" points="333.5,-124 252.5,-124 252.5,-88 333.5,-88 333.5,-124"/>
<text text-anchor="middle" x="293" y="-102.3" font-family="Times,serif" font-size="14.00">GET events</text>
</g>
<!-- eventful -->
<g id="node9" class="node"><title>eventful</title>
<polygon fill="none" stroke="black" points="593.5,-52 452.5,-52 452.5,-16 593.5,-16 593.5,-52"/>
<text text-anchor="middle" x="523" y="-30.3" font-family="Times,serif" font-size="14.00">http://api.eventful.com</text>
</g>
<!-- getevents&#45;&gt;eventful -->
<g id="edge1" class="edge"><title>getevents&#45;&gt;eventful</title>
<path fill="none" stroke="black" d="M333.613,-91.0349C336.784,-89.9924 339.941,-88.9699 343,-88 379.177,-76.5294 419.704,-64.5227 453.131,-54.8434"/>
<polygon fill="black" stroke="black" points="454.175,-58.185 462.811,-52.0478 452.232,-51.4599 454.175,-58.185"/>
</g>
<!-- postvenues -->
<g id="node3" class="node"><title>postvenues</title>
<polygon fill="none" stroke="black" points="127.5,-124 36.5,-124 36.5,-88 127.5,-88 127.5,-124"/>
<text text-anchor="middle" x="82" y="-102.3" font-family="Times,serif" font-size="14.00">POST venues</text>
</g>
<!-- getauth -->
<g id="node5" class="node"><title>getauth</title>
<polygon fill="none" stroke="black" points="287.5,-52 164.5,-52 164.5,-16 287.5,-16 287.5,-52"/>
<text text-anchor="middle" x="226" y="-30.3" font-family="Times,serif" font-size="14.00">GET authentication</text>
</g>
<!-- postvenues&#45;&gt;getauth -->
<g id="edge2" class="edge"><title>postvenues&#45;&gt;getauth</title>
<path fill="none" stroke="black" d="M117.226,-87.8761C136.577,-78.4693 160.773,-66.7077 181.427,-56.6672"/>
<polygon fill="black" stroke="black" points="183.175,-59.7095 190.638,-52.1898 180.114,-53.4139 183.175,-59.7095"/>
</g>
<!-- postevents -->
<g id="node4" class="node"><title>postevents</title>
<polygon fill="none" stroke="black" points="234,-124 146,-124 146,-88 234,-88 234,-124"/>
<text text-anchor="middle" x="190" y="-102.3" font-family="Times,serif" font-size="14.00">POST events</text>
</g>
<!-- postevents&#45;&gt;getauth -->
<g id="edge3" class="edge"><title>postevents&#45;&gt;getauth</title>
<path fill="none" stroke="black" d="M198.899,-87.6966C202.997,-79.7284 207.949,-70.0995 212.493,-61.2641"/>
<polygon fill="black" stroke="black" points="215.742,-62.598 217.203,-52.1043 209.517,-59.3965 215.742,-62.598"/>
</g>
<!-- postauth -->
<g id="node6" class="node"><title>postauth</title>
<polygon fill="none" stroke="black" points="146,-52 16,-52 16,-16 146,-16 146,-52"/>
<text text-anchor="middle" x="81" y="-30.3" font-family="Times,serif" font-size="14.00">POST authentication</text>
</g>
<!-- app -->
<g id="node7" class="node"><title>app</title>
<polygon fill="none" stroke="black" points="381,-196 305,-196 305,-160 381,-160 381,-196"/>
<text text-anchor="middle" x="343" y="-174.3" font-family="Times,serif" font-size="14.00">index.html</text>
</g>
<!-- app&#45;&gt;getvenues -->
<g id="edge4" class="edge"><title>app&#45;&gt;getvenues</title>
<path fill="none" stroke="black" d="M355.607,-159.697C361.597,-151.474 368.876,-141.483 375.479,-132.421"/>
<polygon fill="black" stroke="black" points="378.478,-134.248 381.538,-124.104 372.821,-130.126 378.478,-134.248"/>
</g>
<!-- app&#45;&gt;getevents -->
<g id="edge5" class="edge"><title>app&#45;&gt;getevents</title>
<path fill="none" stroke="black" d="M330.64,-159.697C324.767,-151.474 317.631,-141.483 311.158,-132.421"/>
<polygon fill="black" stroke="black" points="313.878,-130.207 305.217,-124.104 308.182,-134.276 313.878,-130.207"/>
</g>
<!-- admin -->
<g id="node8" class="node"><title>admin</title>
<polygon fill="none" stroke="black" points="230,-196 150,-196 150,-160 230,-160 230,-196"/>
<text text-anchor="middle" x="190" y="-174.3" font-family="Times,serif" font-size="14.00">admin.html</text>
</g>
<!-- admin&#45;&gt;getvenues -->
<g id="edge7" class="edge"><title>admin&#45;&gt;getvenues</title>
<path fill="none" stroke="black" d="M230.304,-163.17C262.358,-152.171 307.432,-136.705 342.169,-124.785"/>
<polygon fill="black" stroke="black" points="343.35,-128.08 351.673,-121.524 341.078,-121.459 343.35,-128.08"/>
</g>
<!-- admin&#45;&gt;getevents -->
<g id="edge8" class="edge"><title>admin&#45;&gt;getevents</title>
<path fill="none" stroke="black" d="M215.197,-159.876C228.414,-150.893 244.792,-139.763 259.107,-130.034"/>
<polygon fill="black" stroke="black" points="261.403,-132.705 267.707,-124.19 257.468,-126.916 261.403,-132.705"/>
</g>
<!-- admin&#45;&gt;postvenues -->
<g id="edge9" class="edge"><title>admin&#45;&gt;postvenues</title>
<path fill="none" stroke="black" d="M163.58,-159.876C149.59,-150.808 132.224,-139.552 117.114,-129.759"/>
<polygon fill="black" stroke="black" points="118.817,-126.692 108.521,-124.19 115.009,-132.566 118.817,-126.692"/>
</g>
<!-- admin&#45;&gt;postevents -->
<g id="edge10" class="edge"><title>admin&#45;&gt;postevents</title>
<path fill="none" stroke="black" d="M190,-159.697C190,-151.983 190,-142.712 190,-134.112"/>
<polygon fill="black" stroke="black" points="193.5,-134.104 190,-124.104 186.5,-134.104 193.5,-134.104"/>
</g>
<!-- admin&#45;&gt;postauth -->
<g id="edge6" class="edge"><title>admin&#45;&gt;postauth</title>
<path fill="none" stroke="black" d="M149.868,-176.454C111.304,-173.525 54.8936,-162.401 27,-124 11.7158,-102.958 30.676,-77.4514 50.2121,-59.1474"/>
<polygon fill="black" stroke="black" points="52.8006,-61.5291 57.9436,-52.2663 48.1467,-56.3002 52.8006,-61.5291"/>
</g>
</g>
</svg>
